<svg width="61" height="48" viewBox="0 0 61 48" fill="none" xmlns="http://www.w3.org/2000/svg">
<path fill-rule="evenodd" clip-rule="evenodd" d="M58.5369 4.6829C58.5369 2.09658 56.4404 0 53.854 0C43.2706 0 17.6079 0 7.02466 0C4.43834 0 2.34155 2.09658 2.34155 4.6829V36.2928C2.34155 37.5348 2.83509 38.7259 3.71321 39.604C4.59154 40.4823 5.7826 40.9757 7.02466 40.9757H14.049L18.7319 45.6585H42.1466L46.8297 40.9757H53.854C55.0961 40.9757 56.2871 40.4823 57.1653 39.604C58.0436 38.7259 58.5369 37.5348 58.5369 36.2928C58.5369 28.4069 58.5369 12.5685 58.5369 4.6829Z" fill="url(#paint0_linear_3381_20)"/>
<path fill-rule="evenodd" clip-rule="evenodd" d="M60.8783 40.9756H37.4636L35.1221 43.3171H25.7563L23.4147 40.9756H0V43.3171C0 44.5591 0.493535 45.7502 1.37166 46.6285C2.24999 47.5067 3.44105 48 4.68311 48H56.1954C57.4374 48 58.6285 47.5067 59.5068 46.6285C60.3849 45.7502 60.8783 44.5591 60.8783 43.3171C60.8783 42.0274 60.8783 40.9756 60.8783 40.9756Z" fill="url(#paint1_linear_3381_20)"/>
<path d="M35.7076 33.9511C41.2035 33.9511 45.6588 29.4958 45.6588 23.9999C45.6588 18.504 41.2035 14.0487 35.7076 14.0487C30.2117 14.0487 25.7563 18.504 25.7563 23.9999C25.7563 29.4958 30.2117 33.9511 35.7076 33.9511Z" fill="url(#paint2_linear_3381_20)"/>
<path fill-rule="evenodd" clip-rule="evenodd" d="M24.383 9.92393C25.558 8.04392 28.296 8.04391 29.471 9.92391L35.7656 19.9953C37.0145 21.9934 35.578 24.5853 33.2217 24.5853H20.6324C18.2761 24.5853 16.8396 21.9935 18.0884 19.9953L24.383 9.92393Z" fill="url(#paint3_linear_3381_20)"/>
<path fill-rule="evenodd" clip-rule="evenodd" d="M35.7656 19.9953C37.0145 21.9935 35.578 24.5853 33.2216 24.5853H26.3589C26.0301 24.5853 25.7563 24.3287 25.7563 23.9999C25.7563 20.5213 27.5452 17.4571 30.2524 15.6779C31.4266 14.9063 32.9307 15.4595 33.6754 16.651L35.7656 19.9953Z" fill="url(#paint4_linear_3381_20)"/>
<defs>
<linearGradient id="paint0_linear_3381_20" x1="33.0001" y1="-3" x2="34.6342" y2="42.2573" gradientUnits="userSpaceOnUse">
<stop stop-color="#EBF9F8"/>
<stop offset="1" stop-color="#C0C4F6"/>
</linearGradient>
<linearGradient id="paint1_linear_3381_20" x1="30.4329" y1="40.9762" x2="30.4329" y2="48.0005" gradientUnits="userSpaceOnUse">
<stop stop-color="#5D51C3"/>
<stop offset="1" stop-color="#0E272D"/>
</linearGradient>
<linearGradient id="paint2_linear_3381_20" x1="32.4384" y1="13.6073" x2="49.2766" y2="25.1209" gradientUnits="userSpaceOnUse">
<stop stop-color="#94F9C9"/>
<stop offset="1" stop-color="#11BD7F"/>
</linearGradient>
<linearGradient id="paint3_linear_3381_20" x1="31.2923" y1="1.84926" x2="15.3218" y2="3.76331" gradientUnits="userSpaceOnUse">
<stop stop-color="#38DED3"/>
<stop offset="1" stop-color="#5CAAF0"/>
</linearGradient>
<linearGradient id="paint4_linear_3381_20" x1="25.7563" y1="19.5988" x2="38.6344" y2="19.5988" gradientUnits="userSpaceOnUse">
<stop stop-color="#448FAE"/>
<stop offset="1" stop-color="#22647F"/>
</linearGradient>
</defs>
</svg>
