<svg width="57" height="57" viewBox="0 0 57 57" fill="none" xmlns="http://www.w3.org/2000/svg">
<path d="M56.5529 28.5C56.5529 44.2402 44.2402 57 28.5 57C23.7964 57 19.3589 55.8606 15.4485 53.8426C11.309 51.7065 8.20744 48.0272 5.55884 44.2319C3.57144 41.3839 1.64384 38.7147 0.801018 35.2376C0.277512 33.0774 0 30.8211 0 28.5C0 12.7598 12.7598 0 28.5 0C40.7097 0.0796882 56.5529 12.7598 56.5529 28.5Z" fill="url(#paint0_linear_3381_59)"/>
<path d="M28.4999 0C27.7472 0 27.0015 0.0297294 26.2635 0.0869529C37.5612 0.963971 47.01 8.42873 50.7755 18.6439C50.7716 18.6512 50.7673 18.6573 50.7634 18.6648C47.8492 24.2631 42.8874 30.7011 36.7942 36.7943C30.701 42.8875 24.2618 47.8493 18.6648 50.7635C16.5763 51.8504 14.9282 52.4834 13.657 52.8335C16.0856 54.3181 18.754 55.4483 21.5902 56.1546C27.7058 52.954 34.6406 47.6229 41.1318 41.1316C45.5714 36.692 49.4675 32.0451 52.5113 27.5945C52.5207 27.8952 52.5272 28.1968 52.5272 28.4999C52.5272 43.4873 40.9583 55.7723 26.2636 56.9129C27.0015 56.9703 27.7472 57 28.4999 57C35.8159 57 42.488 54.2433 47.5343 49.7122C49.3861 48.0493 50.8565 45.9879 52.222 43.8956C53.7713 41.5214 55.1389 39.0615 55.9285 36.2678C56.6265 33.7984 56.9999 31.1929 56.9999 28.5C56.9999 21.3497 54.3667 14.8145 50.0173 9.81104C47.7312 7.18133 44.6358 5.30994 41.5346 3.65962C37.5474 1.53766 33.3317 0 28.4999 0V0Z" fill="url(#paint1_linear_3381_59)"/>
<path d="M17.5918 28.9152L15.7193 27.0427C12.2589 23.5824 6.64868 23.5824 3.18833 27.0427C1.00322 29.2278 0.0968045 32.3978 0.842163 35.3968C2.65309 42.6834 7.26785 48.8616 13.4753 52.7203C16.7021 54.7263 20.8825 54.2606 23.5692 51.5739C24.961 50.182 26.8489 49.4 28.8174 49.4C31.2571 49.4 33.2349 47.4222 33.2349 44.9825C33.2349 41.0282 30.0293 37.8224 26.0748 37.8224H24.3377C21.456 37.8224 19.1199 35.4863 19.1199 32.6047C19.1199 31.2208 18.5703 29.8937 17.5918 28.9152Z" fill="url(#paint2_linear_3381_59)"/>
<path d="M23.569 51.5739C24.961 50.182 26.8489 49.4 28.8174 49.4C31.2571 49.4 33.2349 47.4222 33.2349 44.9825C33.2349 43.5824 32.8315 42.2772 32.1369 41.1739C27.5065 45.2599 22.8503 48.5842 18.6649 50.7635C16.5797 51.8486 14.9338 52.4812 13.6633 52.8317C16.8633 54.7058 20.9341 54.2089 23.569 51.5739Z" fill="url(#paint3_linear_3381_59)"/>
<path d="M46.462 26.0412C52.4471 26.0412 56.229 19.5751 53.2594 14.3788C48.3507 5.78919 39.102 0 28.5001 0C28.4107 0 28.3215 0.000447059 28.2323 0.00122941C24.9778 0.0314059 22.353 2.67308 22.353 5.92778C22.353 7.49941 22.9773 9.00667 24.0886 10.1179L29.38 15.4093C30.8241 16.8534 33.1655 16.8534 34.6096 15.4093C36.0537 13.9652 38.3951 13.9652 39.8392 15.4093C41.9742 17.5444 43.1737 20.4402 43.1737 23.4596C43.1737 24.8853 44.3294 26.0411 45.7551 26.0411H46.462V26.0412Z" fill="url(#paint4_linear_3381_59)"/>
<path d="M26.9622 0.150882C37.9495 1.27512 47.0881 8.64008 50.7755 18.644C50.7716 18.6513 50.7674 18.6574 50.7635 18.6649C49.5449 21.0057 47.9673 23.4935 46.0998 26.0412H46.4619C52.447 26.0412 56.2289 19.5751 53.2593 14.3788C48.3507 5.78919 39.1019 0 28.5 0C28.3916 0 28.2838 0.00201176 28.1757 0.00324118C27.7592 0.0109529 27.3534 0.0618059 26.9622 0.150882Z" fill="url(#paint5_linear_3381_59)"/>
<path d="M36.7238 29.7573C39.1306 29.7573 41.0818 27.8062 41.0818 25.3993C41.0818 22.9924 39.1306 21.0413 36.7238 21.0413C34.3169 21.0413 32.3657 22.9924 32.3657 25.3993C32.3657 27.8062 34.3169 29.7573 36.7238 29.7573Z" fill="url(#paint6_linear_3381_59)"/>
<path d="M8.38229 22.6044C10.3661 22.6044 11.9743 20.9962 11.9743 19.0124C11.9743 17.0286 10.3661 15.4204 8.38229 15.4204C6.39848 15.4204 4.79028 17.0286 4.79028 19.0124C4.79028 20.9962 6.39848 22.6044 8.38229 22.6044Z" fill="url(#paint7_linear_3381_59)"/>
<path d="M55.9281 36.2676H52.8791C49.5422 36.2676 46.3419 37.5933 43.9823 39.9529L40.9356 42.9996C39.7286 44.2066 40.5836 46.2706 42.2907 46.2706C43.3776 46.2706 44.2587 47.1517 44.2587 48.2387C44.2587 49.936 46.2703 50.8449 47.5333 49.7109C51.4868 46.1615 54.4426 41.5235 55.9281 36.2676Z" fill="url(#paint8_linear_3381_59)"/>
<path d="M52.8793 36.2676C52.3925 36.2676 51.9087 36.2967 51.4299 36.3523C50.0955 41.0172 47.6027 45.1923 44.2817 48.5472C44.5073 50.0416 46.3493 50.7741 47.5334 49.711C51.4869 46.1616 54.4427 41.5236 55.9283 36.2678H52.8793V36.2676Z" fill="url(#paint9_linear_3381_59)"/>
<path d="M54.2874 2.71264C52.3341 0.759324 48.4178 -0.697865 40.7203 2.74672C43.0717 3.86314 45.2458 5.29306 47.1882 6.98328C47.8398 6.84838 48.3645 6.79786 48.7763 6.79786C49.1225 6.79786 49.3883 6.83329 49.5805 6.88235C49.7741 6.93142 49.894 6.99412 49.9499 7.05C50.1271 7.22849 50.3793 8.06281 50.0168 9.8116C49.736 11.1665 49.0858 13.0722 47.7458 15.6471C44.8314 21.2453 39.8697 27.6833 33.7767 33.7765C27.6836 39.8696 21.2442 44.8314 15.6472 47.7458C13.0723 49.0857 11.1667 49.736 9.81174 50.0167C8.06285 50.3793 7.22864 50.1271 7.05004 49.9499C6.87278 49.7713 6.62064 48.9371 6.9832 47.1883C5.29298 45.2458 3.86307 43.0717 2.74665 40.7202C-0.697941 48.4178 0.759248 52.3326 2.71256 54.2874C3.81255 55.386 5.53283 56.3293 8.19909 56.3293C10.2696 56.3293 12.9128 55.7595 16.2782 54.2533C16.9802 53.9398 17.7136 53.5854 18.4797 53.186C24.6178 49.9909 31.5901 44.6379 38.1139 38.1141C44.6377 31.5902 49.9907 24.618 53.1858 18.4798C53.5838 17.7138 53.9397 16.9817 54.2532 16.2798C55.7594 12.9142 56.3292 10.2697 56.3292 8.19782C56.3293 5.53291 55.3875 3.81262 54.2874 2.71264Z" fill="url(#paint10_linear_3381_59)"/>
<defs>
<linearGradient id="paint0_linear_3381_59" x1="-1.33067" y1="28.5" x2="55.9031" y2="28.5" gradientUnits="userSpaceOnUse">
<stop stop-color="#01D0FB"/>
<stop offset="0.6075" stop-color="#26A6FE"/>
<stop offset="1" stop-color="#0182FC"/>
</linearGradient>
<linearGradient id="paint1_linear_3381_59" x1="12.6371" y1="28.5" x2="56.5019" y2="28.5" gradientUnits="userSpaceOnUse">
<stop stop-color="#01BFFA"/>
<stop offset="0.2539" stop-color="#1F9EFC"/>
<stop offset="0.5724" stop-color="#407AFD"/>
<stop offset="0.8326" stop-color="#5464FF"/>
<stop offset="1" stop-color="#5B5CFF"/>
</linearGradient>
<linearGradient id="paint2_linear_3381_59" x1="-0.182831" y1="39.203" x2="32.8597" y2="39.203" gradientUnits="userSpaceOnUse">
<stop stop-color="#B0E7C9"/>
<stop offset="0.593" stop-color="#46CC8D"/>
<stop offset="1" stop-color="#0AB69F"/>
</linearGradient>
<linearGradient id="paint3_linear_3381_59" x1="12.0706" y1="47.5657" x2="31.4803" y2="47.5657" gradientUnits="userSpaceOnUse">
<stop stop-color="#46CC8D"/>
<stop offset="0.5484" stop-color="#0AB69F"/>
<stop offset="1" stop-color="#01998D"/>
</linearGradient>
<linearGradient id="paint4_linear_3381_59" x1="20.2295" y1="13.0206" x2="53.2048" y2="13.0206" gradientUnits="userSpaceOnUse">
<stop stop-color="#B0E7C9"/>
<stop offset="0.593" stop-color="#46CC8D"/>
<stop offset="1" stop-color="#0AB69F"/>
</linearGradient>
<linearGradient id="paint5_linear_3381_59" x1="25.1451" y1="13.0206" x2="53.3619" y2="13.0206" gradientUnits="userSpaceOnUse">
<stop stop-color="#46CC8D"/>
<stop offset="0.5484" stop-color="#0AB69F"/>
<stop offset="1" stop-color="#01998D"/>
</linearGradient>
<linearGradient id="paint6_linear_3381_59" x1="33.7585" y1="25.3993" x2="43.5595" y2="25.3993" gradientUnits="userSpaceOnUse">
<stop stop-color="#46CC8D"/>
<stop offset="0.5484" stop-color="#0AB69F"/>
<stop offset="1" stop-color="#01998D"/>
</linearGradient>
<linearGradient id="paint7_linear_3381_59" x1="3.79994" y1="19.0124" x2="13.4771" y2="19.0124" gradientUnits="userSpaceOnUse">
<stop stop-color="#B0E7C9"/>
<stop offset="0.593" stop-color="#46CC8D"/>
<stop offset="1" stop-color="#0AB69F"/>
</linearGradient>
<linearGradient id="paint8_linear_3381_59" x1="37.8881" y1="43.2409" x2="53.3314" y2="43.2409" gradientUnits="userSpaceOnUse">
<stop stop-color="#B0E7C9"/>
<stop offset="0.593" stop-color="#46CC8D"/>
<stop offset="1" stop-color="#0AB69F"/>
</linearGradient>
<linearGradient id="paint9_linear_3381_59" x1="42.4234" y1="43.2409" x2="53.9845" y2="43.2409" gradientUnits="userSpaceOnUse">
<stop stop-color="#46CC8D"/>
<stop offset="0.5484" stop-color="#0AB69F"/>
<stop offset="1" stop-color="#01998D"/>
</linearGradient>
<linearGradient id="paint10_linear_3381_59" x1="-0.67067" y1="28.5003" x2="54.682" y2="28.5003" gradientUnits="userSpaceOnUse">
<stop stop-color="#FFF9DF"/>
<stop offset="0.593" stop-color="#FFE177"/>
<stop offset="1" stop-color="#FEB137"/>
</linearGradient>
</defs>
</svg>
