<svg width="44" height="64" viewBox="0 0 44 64" fill="none" xmlns="http://www.w3.org/2000/svg">
<path d="M43.7127 40.8699V6.41974L5.27874 23.7875C5.00288 23.5244 4.6986 23.2872 4.36011 23.0918C3.09693 22.3625 1.51786 23.2741 1.51786 24.7328V29.2181L1.52021 29.2255V60.2711C1.48229 61.1526 1.89552 62.0515 2.76906 62.5558C4.68946 63.6646 7.05522 63.6658 8.97686 62.5591L42.4677 43.257C43.3761 42.7337 43.7881 41.7842 43.7127 40.8699Z" fill="url(#paint0_linear_3237_35)"/>
<path d="M5.74692 32.8865V35.3136C5.74692 40.4612 11.3239 43.6749 15.7776 41.0934L37.1135 28.7274C40.558 26.7309 42.6785 23.051 42.6785 19.0698V12.3812L5.74692 32.8865Z" fill="url(#paint1_linear_3237_35)"/>
<path d="M10.4943 21.4307L2.77584 25.8756C1.93788 26.3582 1.51847 27.2039 1.51785 28.0498V28.0514C1.51761 28.8974 1.93615 29.7435 2.7735 30.2269C4.6939 31.3355 7.05965 31.3369 8.98129 30.2302L10.4943 21.4307Z" fill="#46230E"/>
<path d="M8.55742 23.4365L3.32867 26.4476C2.76101 26.7745 2.47687 27.3474 2.4765 27.9205V27.9216C2.47638 28.4947 2.7599 29.0678 3.32719 29.3954C4.62817 30.1464 6.2307 30.1474 7.53255 29.3976L8.55742 23.4365Z" fill="#231107"/>
<path d="M6.78985 33.7842V27.2962C6.78985 25.5619 5.86455 23.959 4.36232 23.0919C4.02024 22.8943 3.65568 22.8196 3.3052 22.8414C3.30434 22.8414 3.30286 22.8421 3.30187 22.8421C3.29087 22.8428 3.27988 22.844 3.26901 22.8448C3.1745 22.8522 3.08123 22.8679 2.98969 22.8893C2.96918 22.8939 2.94892 22.8995 2.92854 22.9049C2.83292 22.9308 2.73866 22.9615 2.64847 23.0017L2.66132 22.9943C2.00855 23.2779 1.51785 23.9197 1.51785 24.7327V27.6777C1.51785 26.9774 1.9007 22.6794 4.38085 24.2035C4.95778 24.558 5.74126 25.4727 5.74126 26.6645V33.1524C5.74126 35.9114 7.34379 38.1132 9.51609 39.1665C7.89663 37.9823 6.78985 36.0758 6.78985 33.7842Z" fill="#683415"/>
<path d="M0.853485 22.3598C0.854813 22.359 0.856274 22.3581 0.857602 22.3571L0.853485 22.3596V22.3598Z" fill="#683415"/>
<path d="M43.7214 5.89073C43.7214 4.15638 42.7961 2.55347 41.294 1.68635C40.5172 1.23791 39.6224 1.41136 39.0473 1.94949L2.64853 23.0016C3.17035 22.7693 3.79756 22.7656 4.36238 23.0918C5.8646 23.9589 6.7899 25.5618 6.7899 27.2962V33.7843C6.7899 38.932 12.3668 42.1456 16.8206 39.5643L38.1565 27.1981C41.601 25.2017 43.7215 21.5218 43.7215 17.5405V5.89073H43.7214Z" fill="#8B451C"/>
<path d="M2.29553 23.2061C2.29686 23.2053 2.29832 23.2043 2.29965 23.2033L2.29553 23.2058V23.2061Z" fill="#8B451C"/>
<path d="M30.9312 29.9527L30.9313 29.9524L29.8706 29.3357C29.7655 29.2482 29.611 29.2228 29.4757 29.3009L24.7761 32.0143C24.4938 32.1772 24.3199 32.4784 24.3199 32.8043V36.8602C24.3199 36.9882 24.3869 37.0927 24.4817 37.1523L24.4815 37.1527L24.4875 37.156C24.4913 37.1584 24.4952 37.1606 24.4992 37.1628L25.5618 37.7805C25.6669 37.8684 25.8218 37.8939 25.9572 37.8157L30.6568 35.1023C30.9391 34.9394 31.1129 34.6382 31.1129 34.3123V30.2564C31.1129 30.1198 31.0366 30.0097 30.9312 29.9527Z" fill="url(#paint2_linear_3237_35)"/>
<path d="M25.8942 32.6703L30.5939 29.9569C30.8245 29.8237 31.113 29.9902 31.113 30.2566V34.3125C31.113 34.6383 30.9391 34.9395 30.6569 35.1025L25.9572 37.8159C25.7266 37.949 25.4381 37.7825 25.4381 37.5162V33.4603C25.4381 33.1344 25.6119 32.8333 25.8942 32.6703Z" fill="url(#paint3_linear_3237_35)"/>
<path d="M16.4393 18.3429C15.3257 18.3429 14.4229 17.4401 14.4229 16.3265V8.86357C14.4229 8.14161 14.8088 7.47488 15.4348 7.11526L27.1144 0.40454C27.7382 0.0460316 28.506 0.0471435 29.1289 0.407752C29.7518 0.768236 30.1354 1.43324 30.1354 2.15298V9.61604C30.1354 10.7296 29.2326 11.6324 28.119 11.6324C27.0054 11.6324 26.1026 10.7296 26.1026 9.61604V5.63688L18.4558 10.0304V16.3265C18.4557 17.4402 17.5529 18.3429 16.4393 18.3429Z" fill="#E9E5F6"/>
<path d="M18.4319 10.6012C17.434 10.6012 16.4639 10.0822 15.9313 9.15496C15.1388 7.7754 15.6148 6.01474 16.9944 5.22236L24.0131 1.19094C25.3926 0.398567 27.1533 0.874559 27.9455 2.25411C28.7379 3.63366 28.262 5.39433 26.8825 6.1867L19.8638 10.2181C19.4116 10.4778 18.9185 10.6012 18.4319 10.6012Z" fill="url(#paint4_linear_3237_35)"/>
<path d="M16.4393 18.3429C15.3257 18.3429 14.4229 17.4401 14.4229 16.3265V8.8636C14.4229 8.14325 14.8072 7.47762 15.4311 7.11739L16.3972 6.55961C17.3614 6.00282 18.5948 6.33317 19.1516 7.29763C19.7002 8.24788 19.3874 9.45905 18.4557 10.0271V16.3267C18.4557 17.4402 17.5529 18.3429 16.4393 18.3429Z" fill="#E9E5F6"/>
<defs>
<linearGradient id="paint0_linear_3237_35" x1="5.49728" y1="34.904" x2="10.3408" y2="34.904" gradientUnits="userSpaceOnUse">
<stop stop-color="#8B451C"/>
<stop offset="1" stop-color="#BA5C25"/>
</linearGradient>
<linearGradient id="paint1_linear_3237_35" x1="17.13" y1="12.4847" x2="31.2418" y2="36.927" gradientUnits="userSpaceOnUse">
<stop stop-color="#231107"/>
<stop offset="1" stop-color="#231107" stop-opacity="0"/>
</linearGradient>
<linearGradient id="paint2_linear_3237_35" x1="26.8585" y1="35.0444" x2="28.1201" y2="32.8593" gradientUnits="userSpaceOnUse">
<stop stop-color="#E37A34"/>
<stop offset="1" stop-color="#FFC538"/>
</linearGradient>
<linearGradient id="paint3_linear_3237_35" x1="28.2755" y1="37.6816" x2="28.2755" y2="29.6329" gradientUnits="userSpaceOnUse">
<stop stop-color="#F7E041"/>
<stop offset="1" stop-color="#FCF3B3"/>
</linearGradient>
<linearGradient id="paint4_linear_3237_35" x1="21.0746" y1="4.20799" x2="23.4723" y2="8.3611" gradientUnits="userSpaceOnUse">
<stop stop-color="#BA5C25"/>
<stop offset="1" stop-color="#8B451C"/>
</linearGradient>
</defs>
</svg>
