<svg width="62" height="54" viewBox="0 0 62 54" fill="none" xmlns="http://www.w3.org/2000/svg">
<path d="M38.5969 19.2024C40.4004 18.2461 41.5201 16.4057 41.5201 14.4C41.5201 12.3943 40.4004 10.5539 38.5213 9.55896L27.6317 4.11504C26.021 3.36624 24.0443 3.39072 22.3898 4.45428C20.8429 5.48436 19.9201 7.18248 19.9201 9V19.8C19.9201 21.6175 20.8429 23.3156 22.476 24.4002C23.3109 24.924 24.2953 25.2 25.3201 25.2C26.0654 25.2 26.7861 25.0471 27.7213 24.641L38.5969 19.2024ZM52.4401 14.4H45.1201C44.1252 14.4 43.3201 15.2051 43.3201 16.2V25.2H34.3201C33.638 25.2 33.0158 25.585 32.7099 26.1949L30.7201 30.1746L28.7303 26.1949C28.4244 25.585 27.8022 25.2 27.1201 25.2H25.3201H18.1201V16.2C18.1201 15.2051 17.315 14.4 16.3201 14.4H9.0001C6.02242 14.4 3.6001 16.8223 3.6001 19.8V41.4C3.6001 44.3777 6.02242 46.8 9.0001 46.8H52.4401C55.4178 46.8 57.8401 44.3777 57.8401 41.4V19.8C57.8401 16.8223 55.4178 14.4 52.4401 14.4Z" fill="url(#paint0_linear_3381_35)"/>
<path d="M59.64 43.2H1.8C0.80508 43.2 0 44.0051 0 45C0 49.9624 4.03764 54 9 54H52.44C57.4024 54 61.44 49.9624 61.44 45C61.44 44.0051 60.6349 43.2 59.64 43.2ZM16.32 28.8H26.004L29.1 34.9919C29.424 35.604 30.036 36 30.72 36C31.404 36 32.016 35.604 32.34 34.9919L35.436 28.8H45.12C46.1281 28.8 46.92 28.0079 46.92 27V1.8C46.92 0.79188 46.1281 0 45.12 0H16.32C15.3119 0 14.52 0.79188 14.52 1.8V27C14.52 28.0079 15.3119 28.8 16.32 28.8ZM23.52 9C23.52 8.38776 23.8441 7.812 24.384 7.452C24.888 7.12788 25.5721 7.12788 26.1119 7.37988L36.9119 12.7799C37.524 13.104 37.92 13.716 37.92 14.4C37.92 15.084 37.524 15.696 36.9119 16.02L26.1119 21.42C25.4483 21.7043 24.8284 21.6256 24.384 21.3479C23.8441 20.9878 23.52 20.4119 23.52 19.7999V9Z" fill="url(#paint1_linear_3381_35)"/>
<defs>
<linearGradient id="paint0_linear_3381_35" x1="30.7201" y1="46.8" x2="30.7201" y2="3.5982" gradientUnits="userSpaceOnUse">
<stop stop-color="#C3D1FF"/>
<stop offset="0.9973" stop-color="#F0F9FF"/>
</linearGradient>
<linearGradient id="paint1_linear_3381_35" x1="30.72" y1="54" x2="30.72" y2="0" gradientUnits="userSpaceOnUse">
<stop stop-color="#0200B5"/>
<stop offset="1" stop-color="#9CE0FF"/>
</linearGradient>
</defs>
</svg>
