<svg width="54" height="58" viewBox="0 0 54 58" fill="none" xmlns="http://www.w3.org/2000/svg">
<path d="M44.8744 52.0402H37.3371C36.6444 52.0402 36.0809 52.6036 36.0809 53.2964V55.8088C36.0809 56.5015 36.6444 57.065 37.3371 57.065H44.8744C45.5671 57.065 46.1306 56.5015 46.1306 55.8088V53.2964C46.1306 52.6036 45.5671 52.0402 44.8744 52.0402Z" fill="url(#paint0_linear_3141_113)"/>
<path d="M17.2378 52.0402H9.7006C9.00784 52.0402 8.4444 52.6036 8.4444 53.2964V55.8088C8.4444 56.5015 9.00784 57.065 9.7006 57.065H17.2378C17.9306 57.065 18.494 56.5015 18.494 55.8088V53.2964C18.494 52.6036 17.9306 52.0402 17.2378 52.0402Z" fill="url(#paint1_linear_3141_113)"/>
<path d="M52.4116 25.6599H2.16337C1.47061 25.6599 0.907166 26.2233 0.907166 26.9161V29.4285C0.907166 30.1212 1.47061 30.6847 2.16337 30.6847H52.4116C53.1044 30.6847 53.6678 30.1212 53.6678 29.4285V26.9161C53.6678 26.2233 53.1044 25.6599 52.4116 25.6599Z" fill="url(#paint2_linear_3141_113)"/>
<path d="M21.3205 13.9661C21.1358 13.4857 20.6647 13.1717 20.1567 13.1717H2.75453C1.85856 13.1717 1.25817 14.0677 1.59069 14.8897L5.92276 25.7337H26.022L21.3205 13.9661Z" fill="url(#paint3_linear_3141_113)"/>
<path d="M4.67578 30.6847V50.784C4.67578 52.1695 5.80267 53.2964 7.18819 53.2964H47.3868C48.7723 53.2964 49.8992 52.1695 49.8992 50.784V30.6847H4.67578Z" fill="url(#paint4_linear_3141_113)"/>
<path d="M49.0309 16.4508C48.8277 14.1139 47.0635 12.2665 44.8097 11.9155L39.8588 16.8665L34.9079 11.9155C32.6633 12.2665 30.8714 14.1139 30.6866 16.4508L29.8184 25.6599H49.9177L49.0309 16.4508Z" fill="url(#paint5_linear_3141_113)"/>
<path d="M44.8744 5.63444C44.8744 8.41472 42.6298 11.9155 39.8495 11.9155C37.0693 11.9155 34.8247 8.41472 34.8247 5.63444C34.8247 2.85416 37.0693 0.609619 39.8495 0.609619C42.6298 0.609619 44.8744 2.8634 44.8744 5.63444Z" fill="url(#paint6_linear_3141_113)"/>
<defs>
<linearGradient id="paint0_linear_3141_113" x1="41.1058" y1="52.0392" x2="41.1058" y2="57.0641" gradientUnits="userSpaceOnUse">
<stop stop-color="#DB5757"/>
<stop offset="1" stop-color="#963435"/>
</linearGradient>
<linearGradient id="paint1_linear_3141_113" x1="13.4692" y1="52.0392" x2="13.4692" y2="57.0641" gradientUnits="userSpaceOnUse">
<stop stop-color="#DB5757"/>
<stop offset="1" stop-color="#963435"/>
</linearGradient>
<linearGradient id="paint2_linear_3141_113" x1="27.2875" y1="25.6589" x2="27.2875" y2="30.6838" gradientUnits="userSpaceOnUse">
<stop stop-color="#DB5757"/>
<stop offset="1" stop-color="#963435"/>
</linearGradient>
<linearGradient id="paint3_linear_3141_113" x1="13.7574" y1="13.1726" x2="13.7574" y2="25.7347" gradientUnits="userSpaceOnUse">
<stop stop-color="#5D51C3"/>
<stop offset="1" stop-color="#0E272D"/>
</linearGradient>
<linearGradient id="paint4_linear_3141_113" x1="27.2875" y1="30.6837" x2="27.2875" y2="53.2945" gradientUnits="userSpaceOnUse">
<stop stop-color="#FDDAB6"/>
<stop offset="1" stop-color="#F68C72"/>
</linearGradient>
<linearGradient id="paint5_linear_3141_113" x1="39.8745" y1="11.9165" x2="39.8745" y2="25.659" gradientUnits="userSpaceOnUse">
<stop stop-color="#5D51C3"/>
<stop offset="1" stop-color="#0E272D"/>
</linearGradient>
<linearGradient id="paint6_linear_3141_113" x1="39.8495" y1="0.611467" x2="39.8495" y2="11.9164" gradientUnits="userSpaceOnUse">
<stop stop-color="#F38BBB"/>
<stop offset="1" stop-color="#EC4C83"/>
</linearGradient>
</defs>
</svg>
